<svg xmlns="http://www.w3.org/2000/svg" width="122" height="122"><defs><linearGradient id="linear-gradient" x1=".843" x2=".206" y1=".135" y2=".886" gradientUnits="objectBoundingBox"><stop offset="0" stop-color="#b6509e"/><stop offset="1" stop-color="#2ebac6"/></linearGradient><filter id="Ellipse_1334" width="122" height="122" x="0" y="0" filterUnits="userSpaceOnUse"><feOffset dx="2" dy="2"/><feGaussianBlur result="blur" stdDeviation="2"/><feFlood flood-opacity=".161"/><feComposite in2="blur" operator="in"/><feComposite in="SourceGraphic"/></filter><style>.cls-3{fill:#31cb9e}</style></defs><g id="Group_17929" data-name="Group 17929" transform="translate(-1139 -476)"><g transform="translate(1139 476)" filter="url(#Ellipse_1334)"><circle id="Ellipse_1334-2" cx="55" cy="55" r="55" data-name="Ellipse 1334" transform="translate(4 4)" fill="#fff"/></g><g id="Group_17838" data-name="Group 17838" transform="translate(1125 462)"><path id="Subtraction_108" d="M53 106a53.407 53.407 0 01-10.681-1.077 52.714 52.714 0 01-18.951-7.975A53.154 53.154 0 014.165 73.63a52.732 52.732 0 01-3.088-9.949 53.517 53.517 0 010-21.363 52.715 52.715 0 017.975-18.951A53.155 53.155 0 0132.37 4.165a52.738 52.738 0 019.949-3.088 53.517 53.517 0 0121.363 0 52.709 52.709 0 0118.951 7.975 53.152 53.152 0 0119.2 23.319 52.725 52.725 0 013.088 9.948 53.517 53.517 0 010 21.363 52.71 52.71 0 01-7.975 18.952 53.155 53.155 0 01-23.318 19.2 52.742 52.742 0 01-9.949 3.088A53.407 53.407 0 0153 106zM53 5.679a47.674 47.674 0 00-9.537.961 47.064 47.064 0 00-16.921 7.12A47.46 47.46 0 009.4 34.58a47.081 47.081 0 00-2.76 8.883 47.783 47.783 0 000 19.074 47.062 47.062 0 007.12 16.921A47.461 47.461 0 0034.58 96.6a47.1 47.1 0 008.883 2.757 47.772 47.772 0 0019.074 0 47.043 47.043 0 0016.921-7.12A47.461 47.461 0 0096.6 71.42a47.1 47.1 0 002.757-8.883 47.782 47.782 0 000-19.074 47.062 47.062 0 00-7.12-16.921A47.459 47.459 0 0071.42 9.4a47.061 47.061 0 00-8.883-2.76A47.674 47.674 0 0053 5.679z" data-name="Subtraction 108" transform="translate(20 20)" fill="url(#linear-gradient)"/><g id="KNC" transform="translate(44.418 32.304)"><path id="Path_8739" d="M20 36.63l30.353 17.386a1.6 1.6 0 002.428-1.384V20.6a1.59 1.59 0 00-2.428-1.372z" class="cls-3" data-name="Path 8739" transform="translate(4.283 4.068)"/><path id="Path_8740" d="M49.923 15.6L29.174.34a1.651 1.651 0 00-2.6.874L19 35.21l30.741-17a1.53 1.53 0 00.182-2.61" class="cls-3" data-name="Path 8740" transform="translate(4.069 .001)"/><path id="Path_8741" d="M29.15 72.906l20.773-15.262a1.554 1.554 0 00-.17-2.644L19 38l7.576 34a1.639 1.639 0 002.574.935" class="cls-3" data-name="Path 8741" transform="translate(4.069 8.138)"/><path id="Path_8742" d="M16.391 39.839L24.282 2.93a1.566 1.566 0 00-2.428-1.59L1.639 16.843A4.189 4.189 0 000 20.182v39.337a4.189 4.189 0 001.639 3.387l20.118 15.456a1.566 1.566 0 002.428-1.59z" class="cls-3" data-name="Path 8742" transform="translate(0 .229)"/></g></g></g></svg>
