<svg xmlns="http://www.w3.org/2000/svg" width="122" height="122"><defs><linearGradient id="linear-gradient" x2="1" y1=".5" y2=".5" gradientUnits="objectBoundingBox"><stop offset="0" stop-color="#01aec9"/><stop offset="1" stop-color="#1e8fca"/></linearGradient><linearGradient id="linear-gradient-2" x1=".843" x2=".206" y1=".135" y2=".886" gradientUnits="objectBoundingBox"><stop offset="0" stop-color="#b6509e"/><stop offset="1" stop-color="#2ebac6"/></linearGradient><filter id="Ellipse_1348" width="122" height="122" x="0" y="0" filterUnits="userSpaceOnUse"><feOffset dx="2" dy="2"/><feGaussianBlur result="blur" stdDeviation="2"/><feFlood flood-opacity=".161"/><feComposite in2="blur" operator="in"/><feComposite in="SourceGraphic"/></filter><style>.cls-1{fill:#fff}</style></defs><g id="Group_17924" data-name="Group 17924" transform="translate(-801 -140)"><g transform="translate(801 140)" filter="url(#Ellipse_1348)"><circle id="Ellipse_1348-2" cx="55" cy="55" r="55" class="cls-1" data-name="Ellipse 1348" transform="translate(4 4)"/></g><g id="Group_17820" data-name="Group 17820" transform="translate(807 146)"><g id="Group_13200" data-name="Group 13200" transform="translate(12.304 12.304)"><g id="Group_3982" data-name="Group 3982"><g id="Group_1368" data-name="Group 1368"><circle id="XMLID_5_" cx="40.696" cy="40.696" r="40.696" fill="url(#linear-gradient)"/></g><g id="XMLID_2_" transform="translate(22.794 11.152)"><path id="XMLID_4_" d="M458.718 136.775l-4.983-4.975-16.635 16.634 16.634 16.642 4.983-4.983-11.659-11.659z" class="cls-1" transform="translate(-422.912 -131.8)"/><path id="XMLID_3_" d="M291.017 453.542L274.383 436.9l-4.983 4.983 11.659 11.659L269.4 465.2l4.983 4.975z" class="cls-1" transform="translate(-269.4 -411.087)"/></g><path id="XMLID_1_" d="M0 0h23.529v7.014H0z" class="cls-1" transform="rotate(45 -18.654 57.022)"/></g></g><path id="Subtraction_108" d="M53 106a53.408 53.408 0 01-10.681-1.077 52.71 52.71 0 01-18.951-7.975A53.153 53.153 0 014.165 73.63a52.729 52.729 0 01-3.088-9.949 53.517 53.517 0 010-21.363 52.714 52.714 0 017.975-18.951A53.158 53.158 0 0132.37 4.165a52.75 52.75 0 019.949-3.088 53.514 53.514 0 0121.363 0 52.7 52.7 0 0118.951 7.975 53.152 53.152 0 0119.2 23.318 52.732 52.732 0 013.088 9.949 53.517 53.517 0 010 21.363 52.708 52.708 0 01-7.975 18.952 53.158 53.158 0 01-23.318 19.2 52.76 52.76 0 01-9.949 3.088A53.408 53.408 0 0153 106zM53 5.679a47.674 47.674 0 00-9.537.961 47.065 47.065 0 00-16.921 7.12A47.46 47.46 0 009.4 34.58a47.086 47.086 0 00-2.76 8.883 47.782 47.782 0 000 19.074 47.066 47.066 0 007.12 16.921A47.462 47.462 0 0034.58 96.6a47.105 47.105 0 008.883 2.757 47.783 47.783 0 0019.074 0 47.046 47.046 0 0016.921-7.12A47.458 47.458 0 0096.6 71.42a47.093 47.093 0 002.757-8.883 47.783 47.783 0 000-19.074 47.063 47.063 0 00-7.12-16.921A47.458 47.458 0 0071.42 9.4a47.074 47.074 0 00-8.883-2.76A47.674 47.674 0 0053 5.679z" data-name="Subtraction 108" fill="url(#linear-gradient-2)"/></g></g></svg>
