<svg xmlns="http://www.w3.org/2000/svg" width="122" height="122"><defs><linearGradient id="linear-gradient" x1=".843" x2=".206" y1=".135" y2=".886" gradientUnits="objectBoundingBox"><stop offset="0" stop-color="#b6509e"/><stop offset="1" stop-color="#2ebac6"/></linearGradient><filter id="Ellipse_1342" width="122" height="122" x="0" y="0" filterUnits="userSpaceOnUse"><feOffset dx="2" dy="2"/><feGaussianBlur result="blur" stdDeviation="2"/><feFlood flood-opacity=".161"/><feComposite in2="blur" operator="in"/><feComposite in="SourceGraphic"/></filter><style>.cls-1{fill:#fff}</style></defs><g id="Group_18213" data-name="Group 18213" transform="translate(-22909 16444)"><g transform="translate(22909 -16444)" filter="url(#Ellipse_1342)"><circle id="Ellipse_1342-2" cx="55" cy="55" r="55" class="cls-1" data-name="Ellipse 1342" transform="translate(4 4)"/></g><g id="Group_18212" data-name="Group 18212" transform="translate(-138)"><path id="Subtraction_108" d="M53 106a53.407 53.407 0 01-10.681-1.077 52.714 52.714 0 01-18.951-7.975A53.154 53.154 0 014.165 73.63a52.732 52.732 0 01-3.088-9.949 53.517 53.517 0 010-21.363 52.715 52.715 0 017.975-18.951A53.155 53.155 0 0132.37 4.165a52.738 52.738 0 019.949-3.088 53.517 53.517 0 0121.363 0 52.709 52.709 0 0118.951 7.975 53.152 53.152 0 0119.2 23.319 52.726 52.726 0 013.088 9.949 53.517 53.517 0 010 21.363 52.71 52.71 0 01-7.975 18.952 53.155 53.155 0 01-23.318 19.2 52.742 52.742 0 01-9.949 3.088A53.407 53.407 0 0153 106zM53 5.679a47.674 47.674 0 00-9.537.961 47.064 47.064 0 00-16.921 7.12A47.46 47.46 0 009.4 34.58a47.081 47.081 0 00-2.76 8.883 47.783 47.783 0 000 19.074 47.062 47.062 0 007.12 16.921A47.462 47.462 0 0034.58 96.6a47.1 47.1 0 008.883 2.757 47.772 47.772 0 0019.074 0 47.044 47.044 0 0016.921-7.12A47.461 47.461 0 0096.6 71.42a47.1 47.1 0 002.757-8.883 47.783 47.783 0 000-19.074 47.062 47.062 0 00-7.12-16.921A47.459 47.459 0 0071.42 9.4a47.061 47.061 0 00-8.883-2.76A47.674 47.674 0 0053 5.679z" data-name="Subtraction 108" transform="translate(23053 -16438)" fill="url(#linear-gradient)"/><g id="Group_18211" data-name="Group 18211" transform="translate(-119 4.999)"><path id="Path_7588" d="M81.393 40.7a40.7 40.7 0 10-40.7 40.7 40.7 40.7 0 0040.7-40.7z" data-name="Path 7588" transform="translate(23185 -16431)" fill="#1e1a31" fill-rule="evenodd"/><g id="Group_18210" data-name="Group 18210" transform="translate(-67.998 -17)"><path id="Union_44" d="M2 32.377a2 2 0 110-4h13.37a5.1 5.1 0 100-10.2H9.093A9.093 9.093 0 119.093 0h13.372a2 2 0 110 4H9.093a5.1 5.1 0 000 10.2h6.277a9.093 9.093 0 110 18.186z" class="cls-1" data-name="Union 44" transform="translate(23281.998 -16389)"/><path id="Path-3" d="M4.376 32.68l-3.247-2.327L21.555 1.848 24.8 4.175z" transform="translate(23281.197 -16390.107)" fill="rgba(255,255,255,.5)"/></g></g></g></g></svg>
